<?xml version="1.0" encoding="UTF-8" standalone="no"?>
<!-- Created with Inkscape (http://www.inkscape.org/) -->

<svg
   xmlns:dc="http://purl.org/dc/elements/1.1/"
   xmlns:cc="http://creativecommons.org/ns#"
   xmlns:rdf="http://www.w3.org/1999/02/22-rdf-syntax-ns#"
   xmlns:svg="http://www.w3.org/2000/svg"
   xmlns="http://www.w3.org/2000/svg"
   xmlns:sodipodi="http://sodipodi.sourceforge.net/DTD/sodipodi-0.dtd"
   xmlns:inkscape="http://www.inkscape.org/namespaces/inkscape"
   width="200"
   height="200"
   viewBox="0 0 52.916665 52.916668"
   version="1.1"
   id="svg8"
   inkscape:version="0.92.3 (2405546, 2018-03-11)"
   sodipodi:docname="prototype-icon-3.svg">
  <defs
     id="defs2">
    <style
       id="style1621">.cls-1{fill:#00bfd8;}</style>
    <style
       id="style1686">.cls-1{fill:#00bfd8;}</style>
  </defs>
  <sodipodi:namedview
     id="base"
     pagecolor="#ffffff"
     bordercolor="#666666"
     borderopacity="1.0"
     inkscape:pageopacity="0.0"
     inkscape:pageshadow="2"
     inkscape:zoom="2.8"
     inkscape:cx="45.787139"
     inkscape:cy="87.434119"
     inkscape:document-units="mm"
     inkscape:current-layer="g851"
     showgrid="false"
     inkscape:window-width="1920"
     inkscape:window-height="1017"
     inkscape:window-x="-8"
     inkscape:window-y="-8"
     inkscape:window-maximized="1"
     units="px" />
  <metadata
     id="metadata5">
    <rdf:RDF>
      <cc:Work
         rdf:about="">
        <dc:format>image/svg+xml</dc:format>
        <dc:type
           rdf:resource="http://purl.org/dc/dcmitype/StillImage" />
        <dc:title></dc:title>
      </cc:Work>
    </rdf:RDF>
  </metadata>
  <g
     inkscape:label="Capa 1"
     inkscape:groupmode="layer"
     id="layer1"
     transform="translate(0,-244.08332)">
    <g
       id="g851"
       transform="matrix(0.17632051,0,0,0.17632051,36.248283,242.38651)"
       style="fill:#00bfd8;fill-opacity:1;stroke:none;stroke-opacity:1">
      <path
         id="path833"
         d="m 86.591392,209.6988 -40.118173,-13.78859 -22.808335,8.19561 -2.58312,10.05235 -30.0267407,-12.21525 c 1.4169696,-4.7493 2.1335987,-9.68426 2.1335987,-14.69741 0,-28.29054 -23.013551,-51.3041 -51.304096,-51.3041 -0.899043,0 -1.807859,0.026 -2.739476,0.0782 l -6.928496,-38.043212 c 12.371617,-5.296539 18.847334,-11.697342 17.420591,-17.205614 l -8.130478,-38.479686 c -0.7264,-2.804624 -3.759041,-6.257471 -14.114327,-6.791684 -7.159771,-0.36483 -16.225122,0.745945 -25.515239,3.14665 -9.293371,2.400707 -17.759351,5.811209 -23.850701,9.602825 -8.80151,5.48221 -9.78524,9.974168 -9.01324,12.931889 l 12.33577,37.114862 c 1.76227,6.81122 13.71368,7.87967 25.010358,6.56367 l 10.511642,37.63277 c -16.267473,9.09141 -26.28724,26.05922 -26.28724,44.75346 0,5.72977 0.9316,11.33252 2.77531,16.68443 l -36.03014,23.63244 c -10.27386,-10.89927 -20.07212,-15.22183 -25.81817,-11.30969 -1.18571,0.80457 -2.13033,1.92186 -2.82743,3.37141 l -30.14076,66.94614 70.85829,-6.01643 c 1.92513,-0.026 3.53103,-0.46581 4.93172,-1.41371 5.89262,-4.01312 5.20533,-15.44661 -1.65803,-29.41761 l 32.929094,-26.20579 c 9.59305,9.57676 22.691067,15.02964 36.28421,15.02964 14.159929,0 27.661865,-5.85355 37.342867,-16.12087 L 14.25099,240.75493 8.7915811,261.99319 69.278296,291.8082 90.975857,231.66678 Z m -40.079087,-8.60932 35.834692,12.31623 3.006581,15.05898 L 31.3947,206.51956 Z m -105.699465,-45.6004 -0.42672,-2.58962 c 1.807861,1.03585 3.133622,2.51147 3.706925,4.34212 1.485376,4.77861 -2.241093,10.20545 -8.306376,12.09801 -3.381184,1.05213 -6.915467,0.82086 -9.681001,-0.6287 -2.022848,-1.06191 -3.41376,-2.65478 -4.019636,-4.60922 -0.566789,-1.81438 -0.293166,-3.77208 0.579818,-5.62878 l 0.830637,3.27369 0.201958,0.47555 c 0.11401,0.17593 2.390935,3.63853 7.397563,3.63853 0.986993,0 2.074965,-0.13355 3.27369,-0.45276 6.029452,-1.61569 6.853575,-7.17607 6.443142,-9.91882 z m -67.11228,-95.689465 c -0.33551,-1.286673 1.68734,-4.149931 6.90897,-7.404076 5.6809,-3.53754 13.6648,-6.739568 22.489098,-9.019749 8.821049,-2.276925 17.345674,-3.348609 24.042894,-2.996811 6.146717,0.31597 9.299885,1.846948 9.609338,3.029385 l 0.407175,1.934897 c -0.469066,0.931617 -1.35508,2.032621 -2.768793,3.27369 -3.941458,-5.75583 -17.502026,-4.746037 -29.733571,-1.583098 -7.355231,1.899067 -13.997061,4.837244 -18.704011,8.277063 -3.6027,2.628723 -5.7819,5.387743 -6.46269,8.022982 -2.31926,-0.381117 -4.06524,-0.970707 -5.18252,-1.700364 z m 58.125105,-9.208677 c -0.485351,0.335512 -0.970706,0.671024 -1.527721,1.016308 -5.749316,3.579888 -13.814646,6.814487 -22.71713,9.114214 -10.202194,2.638496 -18.739844,3.377928 -24.801884,2.977266 0.63196,-1.758996 2.3877,-3.785101 5.09784,-5.762345 4.38122,-3.202028 10.63217,-5.954532 17.596509,-7.752618 13.423754,-3.46262 24.117809,-3.23786 26.352386,0.407175 z M -92.20094,99.748427 c -13.83093,1.990263 -21.13403,-0.420217 -21.7627,-2.830688 l -10.35203,-31.144047 c 2.72969,0.863213 6.19232,1.276903 10.11749,1.276903 6.81122,0 14.922159,-1.185695 22.596604,-3.172711 9.211935,-2.377904 17.599749,-5.752574 23.622687,-9.501845 2.57009,-1.599384 4.579907,-3.198769 6.042481,-4.765579 l 6.821003,32.280862 c 0.563532,2.172688 -4.133645,7.430134 -16.332619,12.316251 l -0.785034,0.31597 c -3.104305,1.185683 -6.371479,2.257378 -9.801525,3.143397 -3.345354,0.863212 -6.68419,1.537487 -9.915539,2.003299 l 0.0063,0.04234 z m 2.974012,2.752503 c 2.638497,-0.44952 5.312823,-0.987 8.003437,-1.68409 2.954466,-0.76223 5.772119,-1.677566 8.50508,-2.661289 l 7.85034,43.108469 0.02606,-0.003 2.430023,14.72345 c 0.07165,0.51142 0.560272,5.0327 -4.06524,6.27052 -4.283486,1.1466 -6.433371,-0.987 -6.954555,-1.6222 l -3.967518,-15.62576 0.03583,-0.0194 -0.44952,-1.60915 -0.01629,-0.0618 v 0 z m -39.186552,172.6 c -0.57006,0.38763 -1.27691,0.57331 -2.37792,0.57982 l -62.80272,5.31607 26.70419,-59.30754 c 0.29643,-0.61563 0.67102,-1.07167 1.14986,-1.39414 3.00984,-2.06847 11.34553,1.47234 20.8539,12.07844 l 0.19217,0.21498 c 2.41374,2.71342 4.73301,5.68092 6.88615,8.84385 1.84696,2.71342 3.50823,5.4985 4.98711,8.27706 l 0.24428,0.46908 c 6.93502,13.30647 7.31614,22.76923 4.16298,24.92238 z m -2.54403,-28.73354 c -1.28017,-2.27693 -2.64502,-4.54409 -4.15645,-6.76562 -1.78832,-2.62874 -3.71019,-5.08483 -5.68416,-7.42691 l 38.45688,-25.22532 0.26385,-0.17589 0.003,0.007 12.537744,-8.22495 c 0.42672,-0.25407 4.241141,-2.40395 7.410592,1.87954 3.123849,4.22159 0.846925,6.42033 0.612391,6.62229 l -12.381383,9.8569 -0.01955,-0.0195 z m 51.450673,-47.87732 c -3.99032,-5.38123 -9.329203,-4.17926 -11.697336,-2.72645 0.908816,-1.87951 2.293213,-3.417 4.156446,-4.29976 4.954511,-2.32578 11.172892,0.44626 13.88631,6.18254 1.338792,2.83394 1.6287,5.94149 0.81435,8.75264 -0.785034,2.7004 -2.508201,4.79815 -4.847016,5.90243 -1.934898,0.91206 -4.110842,1.02606 -6.244441,0.4495 l 3.974031,-3.16617 c 1.758999,-1.44304 4.006607,-5.61905 -0.04234,-11.09473 z m 21.394621,35.17344 c -12.645237,0 -24.792094,-5.24768 -33.528447,-14.37493 l 3.807903,-3.03264 c 2.224806,1.15964 4.57665,1.77856 6.902436,1.77856 2.000047,0 3.983804,-0.43651 5.830751,-1.31274 3.622231,-1.70688 6.270503,-4.89263 7.449682,-8.95786 1.149863,-3.95449 0.758974,-8.29009 -1.091233,-12.19897 -3.863278,-8.17933 -13.013323,-12.01005 -20.388083,-8.5116 -4.690658,2.21504 -7.752618,7.0425 -8.055565,12.62895 l -4.661338,3.0587 c -1.75899,-4.96102 -2.68411,-10.15984 -2.68411,-15.48896 0,-17.05249 9.234748,-32.49583 24.173199,-40.67193 l 1.430001,5.63531 c -3.687381,3.86653 -5.068518,8.8178 -3.651549,13.34559 0.983736,3.16945 3.260659,5.82422 6.410569,7.479 2.325785,1.22153 4.993599,1.84042 7.746104,1.84042 1.876263,0 3.794875,-0.2899 5.664623,-0.87298 8.632118,-2.69061 13.798358,-10.86018 11.511662,-18.21214 -1.273644,-4.08805 -4.733006,-7.23469 -9.309656,-8.57348 l -1.026083,-6.21513 c 1.185695,-0.0878 2.355102,-0.17263 3.465876,-0.17263 25.593414,0 46.417991,20.82456 46.417991,46.41797 0,4.94475 -0.798062,9.78851 -2.316012,14.43356 l -7.579978,-3.02613 c -0.602619,-4.79488 -3.192254,-8.83733 -7.211889,-11.13379 -7.267267,-4.14994 -16.840774,-1.14986 -21.342504,6.7135 -2.153143,3.76882 -2.837199,8.09138 -1.921867,12.16966 0.934874,4.16622 3.413759,7.57997 6.9741,9.61258 2.208519,1.26715 4.648312,1.89583 7.127196,1.89583 2.615694,0 5.263963,-0.72315 7.726558,-2.12059 l 6.032712,3.07827 c -8.768929,9.38458 -21.016763,14.7886 -33.903049,14.7886 z m 20.355511,-21.70734 1.586355,0.80784 c -2.254124,0.40717 -4.524534,0.14007 -6.495262,-0.99025 -2.35836,-1.34531 -4.003347,-3.632 -4.632026,-6.44315 -0.648224,-2.88932 -0.1531,-5.97081 1.397425,-8.67446 3.159681,-5.51804 9.739634,-7.7233 14.6746,-4.89588 1.824146,1.04237 3.156425,2.68085 3.980547,4.63528 l -4.045695,-1.61565 c -2.531002,-1.08148 -8.156537,-1.4919 -11.273871,4.65156 -3.091276,6.08809 1.758996,10.83739 4.807927,12.52471 z m 15.840748,4.41705 -0.0033,0.003 -14.309771,-7.29657 c -0.241049,-0.13356 -5.892641,-3.33234 -3.436561,-8.16958 2.465854,-4.85027 6.641845,-3.31931 7.130454,-3.11406 l 19.124214,7.63534 0.0033,-0.009 34.824896,14.13061 -4.40401,17.13067 z m 88.451521,68.63672 -52.027239,-25.64227 4.94148,-19.23821 0.04234,0.009 5.654851,-22.00704 -0.03908,-0.009 2.475627,-9.6354 58.043662,23.6064 z"
         class="st0"
         inkscape:connector-curvature="0"
         style="fill:#00bfd8;fill-opacity:1;stroke:#00bfd8;stroke-width:3.3425498;stroke-miterlimit:4;stroke-dasharray:none;stroke-opacity:1" />
    </g>
  </g>
  <style
     id="style831"
     type="text/css">
	.st0{fill:#231F20;}
</style>
</svg>
