<?xml version="1.0" encoding="UTF-8" standalone="no"?>
<!-- Created with Inkscape (http://www.inkscape.org/) -->

<svg
   xmlns:dc="http://purl.org/dc/elements/1.1/"
   xmlns:cc="http://creativecommons.org/ns#"
   xmlns:rdf="http://www.w3.org/1999/02/22-rdf-syntax-ns#"
   xmlns:svg="http://www.w3.org/2000/svg"
   xmlns="http://www.w3.org/2000/svg"
   xmlns:sodipodi="http://sodipodi.sourceforge.net/DTD/sodipodi-0.dtd"
   xmlns:inkscape="http://www.inkscape.org/namespaces/inkscape"
   width="200"
   height="200"
   viewBox="0 0 52.916665 52.916668"
   version="1.1"
   id="svg8"
   inkscape:version="0.92.3 (2405546, 2018-03-11)"
   sodipodi:docname="tools.svg">
  <defs
     id="defs2">
    <style
       id="style1621">.cls-1{fill:#00bfd8;}</style>
    <style
       id="style1686">.cls-1{fill:#00bfd8;}</style>
    <style
       id="style1837">.cls-1{fill:#00bfd8;}</style>
  </defs>
  <sodipodi:namedview
     id="base"
     pagecolor="#ffffff"
     bordercolor="#666666"
     borderopacity="1.0"
     inkscape:pageopacity="0.0"
     inkscape:pageshadow="2"
     inkscape:zoom="2.8"
     inkscape:cx="45.787139"
     inkscape:cy="87.434119"
     inkscape:document-units="mm"
     inkscape:current-layer="g851"
     showgrid="false"
     inkscape:window-width="1920"
     inkscape:window-height="1017"
     inkscape:window-x="-8"
     inkscape:window-y="-8"
     inkscape:window-maximized="1"
     units="px" />
  <metadata
     id="metadata5">
    <rdf:RDF>
      <cc:Work
         rdf:about="">
        <dc:format>image/svg+xml</dc:format>
        <dc:type
           rdf:resource="http://purl.org/dc/dcmitype/StillImage" />
        <dc:title></dc:title>
      </cc:Work>
    </rdf:RDF>
  </metadata>
  <g
     inkscape:label="Capa 1"
     inkscape:groupmode="layer"
     id="layer1"
     transform="translate(0,-244.08332)">
    <g
       id="g851"
       transform="matrix(0.17632051,0,0,0.17632051,36.248283,242.38651)"
       style="fill:#00bfd8;fill-opacity:1;stroke:none;stroke-opacity:1">
      <g
         id="g1770"
         transform="matrix(12.510014,0,0,12.510014,-551.67354,0.23494835)">
        <g
           id="g1750"
           transform="translate(27.599371,0.79504361)">
          <path
             id="path1744"
             d="M 21.284,10.109 C 21.406,9.771 21.338,9.379 21.068,9.108 L 19.891,7.931 C 19.834,7.874 19.764,7.843 19.698,7.804 19.847,7.456 19.782,7.038 19.498,6.754 L 18.321,5.577 c -0.372,-0.371 -0.978,-0.37 -1.35,0 L 16.839,5.709 C 16.808,5.666 16.79,5.616 16.752,5.577 L 15.575,4.4 c -0.372,-0.371 -0.978,-0.371 -1.35,0 L 13.307,5.317 C 12.738,4.9 12.148,4.874 11.422,4.985 L 11.01,5.043 C 10.27,5.147 9.646,5.25 9.177,5.406 L 9.05,5.293 C 9.49,3.746 8.936,1.997 7.643,0.966 6.288,-0.114 4.413,-0.205 2.954,0.721 2.941,0.727 2.93,0.734 2.918,0.741 2.913,0.744 2.908,0.746 2.904,0.749 2.901,0.75 2.901,0.754 2.899,0.756 2.839,0.799 2.788,0.856 2.764,0.932 2.761,0.941 2.763,0.951 2.761,0.96 2.758,0.971 2.759,0.979 2.757,0.99 2.746,1.071 2.76,1.149 2.8,1.216 c 0.003,0.005 0,0.012 0.003,0.018 0.006,0.008 0.017,0.008 0.024,0.015 0.042,0.054 0.095,0.1 0.165,0.122 L 3.02,1.38 c 0.003,0.001 0.006,0.002 0.009,0.003 l 2,0.635 L 5.043,4.095 3.071,4.751 1.817,3.048 C 1.813,3.044 1.807,3.044 1.803,3.04 1.756,2.982 1.695,2.935 1.618,2.917 1.611,2.915 1.604,2.917 1.597,2.916 1.587,2.914 1.58,2.916 1.57,2.915 1.484,2.905 1.402,2.925 1.335,2.973 1.333,2.974 1.33,2.973 1.328,2.975 1.324,2.978 1.325,2.983 1.322,2.985 1.262,3.032 1.214,3.095 1.195,3.173 1.193,3.183 1.192,3.193 1.19,3.202 c 0,10e-4 0,0.002 0,0.003 -0.355,1.515 0.197,3.116 1.416,4.087 0.76,0.605 1.667,0.915 2.565,0.915 0.551,0 1.097,-0.124 1.607,-0.36 L 7.629,8.649 C 7.608,8.883 7.594,9.111 7.594,9.311 c 0,1.709 -0.257,2.762 -0.432,2.936 L 6.658,12.751 6.156,12.249 c -0.15,-0.148 -0.416,-0.148 -0.565,0 l -3.136,3.138 c -0.156,0.156 -0.156,0.41 0,0.566 l 7.847,7.844 c 0.075,0.074 0.177,0.117 0.283,0.117 0.106,0 0.208,-0.043 0.283,-0.117 l 3.136,-3.138 c 0.156,-0.156 0.156,-0.41 0,-0.566 l -0.5,-0.5 0.502,-0.501 c 0.19,-0.19 0.576,-0.188 1.03,-0.177 0.657,0.009 1.47,0.022 2.106,-0.606 l 0.327,-0.323 1.408,1.334 c 0.309,0.287 0.708,0.439 1.144,0.439 0.068,0 0.137,-0.004 0.207,-0.012 0.492,-0.054 0.959,-0.294 1.316,-0.677 0.75,-0.807 0.773,-2.008 0.042,-2.688 l -1.353,-1.164 2.405,-2.405 c 0.372,-0.372 0.372,-0.979 0,-1.351 z m -1.959,-1.611 1.177,1.176 c 0.061,0.061 0.061,0.16 0,0.22 l -2.747,2.746 -0.004,0.004 c -0.06,0.059 -0.158,0.06 -0.217,0.002 l -1.092,-1.081 c 0.736,-0.2 1.362,-0.681 1.577,-1.245 0.056,-0.147 0.021,-0.313 -0.091,-0.425 l -0.11,-0.11 1.287,-1.287 c 0.061,-0.062 0.159,-0.061 0.22,0 z m -2.573,-1.57 0.785,-0.785 c 0.061,-0.062 0.159,-0.061 0.219,0 l 1.177,1.177 c 0.061,0.061 0.061,0.158 0,0.22 l -0.39,0.391 c 0,0 -10e-4,0.001 -10e-4,0.001 L 17.255,9.219 15.859,7.823 16.752,6.93 c -10e-4,-10e-4 0,-10e-4 0,-0.002 z M 14.79,4.966 c 0.061,-0.062 0.159,-0.061 0.219,0 l 1.177,1.176 c 0.061,0.061 0.061,0.16 0,0.22 L 15.291,7.256 13.896,5.86 Z M 7.166,7.113 C 7.005,6.96 6.752,6.969 6.601,7.129 6.59,7.14 6.587,7.154 6.578,7.166 5.444,7.741 4.104,7.591 3.042,6.745 2.254,6.117 1.808,5.171 1.788,4.19 l 0.871,1.181 c 0.067,0.09 0.173,0.141 0.281,0.141 0.037,0 0.074,-0.006 0.11,-0.018 L 5.504,4.679 C 5.648,4.631 5.745,4.496 5.744,4.345 L 5.727,1.759 C 5.726,1.607 5.627,1.473 5.483,1.427 L 4.05,0.972 C 5.11,0.61 6.299,0.79 7.206,1.513 8.332,2.41 8.795,3.958 8.333,5.279 8.327,5.298 8.329,5.317 8.326,5.336 8.254,5.492 8.283,5.681 8.417,5.8 L 8.46,5.838 C 8.145,6.219 7.909,6.928 7.765,7.677 Z m 3.418,15.835 -7.281,-7.278 2.57,-2.572 7.281,7.278 z m 5.996,-5.209 c -0.398,0.393 -0.945,0.385 -1.532,0.376 -0.582,-0.016 -1.18,-0.02 -1.608,0.41 L 12.938,19.027 7.225,13.316 7.728,12.813 C 8.346,12.196 8.394,9.976 8.394,9.311 8.394,7.962 8.83,6.504 9.104,6.303 9.414,6.075 10.441,5.931 11.122,5.836 l 0.42,-0.061 c 0.757,-0.114 1.109,-0.03 1.506,0.367 l 4.1,4.1 c -0.194,0.242 -0.559,0.489 -1.016,0.587 -0.447,0.094 -1.111,0.079 -1.733,-0.545 L 12.83,8.716 c 0,0 0,0 0,-10e-4 -0.156,-0.156 -0.409,-0.157 -0.565,0 -0.156,0.156 -0.156,0.409 0,0.565 v 0.001 c 1.266,1.267 1.075,3.852 -0.393,5.319 -0.156,0.156 -0.156,0.41 0,0.566 0.078,0.078 0.18,0.117 0.283,0.117 0.103,0 0.205,-0.039 0.283,-0.117 0.306,-0.306 0.562,-0.651 0.773,-1.019 l 3.671,3.294 z m 4.472,-0.76 c 0.397,0.369 0.354,1.063 -0.095,1.547 -0.225,0.242 -0.515,0.394 -0.816,0.427 -0.281,0.027 -0.535,-0.048 -0.717,-0.216 l -1.676,-1.589 c 0,0 0,0 0,0 0,0 0,0 0,0 l -0.017,-0.016 -4.168,-3.74 c 0.308,-0.817 0.415,-1.695 0.297,-2.514 0.44,0.43 0.96,0.672 1.513,0.751 l 1.603,1.587 c 0.055,0.054 0.122,0.083 0.185,0.121 -0.049,0.117 -0.076,0.242 -0.076,0.373 0,0.255 0.1,0.494 0.28,0.674 l 1.177,1.178 c 0.186,0.186 0.431,0.279 0.675,0.279 0.138,0 0.272,-0.037 0.399,-0.096 z m 1.02,-4.732 -2.707,2.708 c -0.009,0.008 -0.02,0.012 -0.028,0.022 -0.004,0.004 -0.005,0.01 -0.008,0.014 l -0.003,0.003 c -0.061,0.06 -0.159,0.062 -0.219,0 l -1.178,-1.178 c -0.039,-0.039 -0.045,-0.085 -0.045,-0.108 0,-0.024 0.006,-0.07 0.045,-0.109 l 0.393,-0.393 c 0,0 0.001,-10e-4 0.001,-10e-4 l 2.463,-2.462 1.287,1.287 c 0.059,0.058 0.059,0.157 -0.001,0.217 z"
             inkscape:connector-curvature="0" />
          <path
             id="path1746"
             d="m 10.958,21.287 c 0.078,0.078 0.18,0.117 0.283,0.117 0.103,0 0.205,-0.039 0.283,-0.117 0.156,-0.156 0.156,-0.41 0,-0.566 l -0.785,-0.784 c -0.156,-0.156 -0.409,-0.156 -0.565,0 -0.156,0.156 -0.156,0.41 0,0.566 z"
             inkscape:connector-curvature="0" />
          <path
             id="path1748"
             d="m 19.452,18.111 0.172,0.178 c 0.172,0.179 0.407,0.281 0.644,0.281 0.207,0 0.399,-0.077 0.544,-0.216 0.148,-0.144 0.232,-0.339 0.236,-0.552 0.004,-0.232 -0.09,-0.465 -0.257,-0.638 l -0.173,-0.18 C 20.296,16.65 19.737,16.62 19.43,16.92 c -0.322,0.311 -0.313,0.844 0.022,1.191 z m 0.819,-0.342 -0.003,0.4 V 17.77 l -0.227,-0.23 z"
             inkscape:connector-curvature="0" />
        </g>
      </g>
    </g>
  </g>
  <style
     id="style831"
     type="text/css">
	.st0{fill:#231F20;}
</style>
  <style
     id="style1788"
     type="text/css">
	.st0{fill:#231F20;}
</style>
</svg>
